<?xml version="1.0" encoding="UTF-8"?>
<svg id="katman_1" xmlns="http://www.w3.org/2000/svg" version="1.1" viewBox="0 0 927.59 401.61">
  <defs>
    <style>
      .st0 {
        fill: #d4af53;
      }
    </style>
  </defs>
  <path class="st0" d="M255.25,353.76c0,3.59.34,4.61,5.29.86,4.95-3.76,18.96-16.06,18.96-16.06v-43.41c-8.46,2.17-16.74,3.78-24.25,4.97v53.63Z"/>
  <path class="st0" d="M258.49,206.18c-1.71,0-3.24.51-3.24,2.22v82.79c9.33-2.29,17.37-5.13,24.25-8.34v-64.71s-.68-4.44,6.66-2.73c7.34,1.71,30.06,11.27,30.06,29.05,0,.86-.06,1.75-.17,2.67-.02.14-.03.28-.05.41-.13.91-.3,1.85-.53,2.81-.02.11-.05.22-.08.33-1.61,6.34-5.68,13.59-13.01,20.53h.03c-13.45,12.75-37.9,24.48-78.42,27.74-1.03.17-2.22,1.71,0,1.71,1.82,0,80.59-3.58,108.97-36.08.07-.07.12-.16.19-.23.95-1.11,1.86-2.24,2.69-3.41.13-.18.25-.39.38-.58.74-1.08,1.45-2.17,2.08-3.31.19-.34.34-.7.51-1.05.53-1.02,1.05-2.04,1.48-3.11.22-.54.38-1.11.57-1.67.32-.91.67-1.82.92-2.78.22-.83.35-1.71.52-2.57.14-.72.33-1.43.42-2.18.21-1.64.33-3.32.33-5.05,0-23.41-21.86-32.46-84.55-32.46Z"/>
  <path class="st0" d="M248.57,47.85c0-3.58-.34-4.61-5.29-.85-4.95,3.76-18.96,16.06-18.96,16.06v43.41c8.45-2.17,16.74-3.78,24.25-4.97v-53.64Z"/>
  <path class="st0" d="M245.33,195.43c1.71,0,3.24-.51,3.24-2.22v-82.78c-9.33,2.29-17.37,5.13-24.25,8.34v64.7s.68,4.44-6.66,2.73c-7.35-1.71-30.06-11.27-30.06-29.04,0-.86.06-1.75.17-2.67.02-.14.03-.27.05-.41.13-.91.3-1.85.53-2.81.03-.11.05-.22.08-.33,1.61-6.35,5.68-13.59,13.01-20.54h-.02c13.45-12.75,37.9-24.48,78.42-27.74,1.03-.17,2.22-1.71,0-1.71-1.82,0-80.59,3.58-108.97,36.09-.07.07-.13.15-.19.23-.95,1.11-1.86,2.24-2.69,3.41-.13.19-.24.39-.38.58-.74,1.08-1.45,2.18-2.08,3.31-.19.34-.34.7-.52,1.05-.53,1.02-1.05,2.04-1.48,3.11-.22.54-.38,1.11-.57,1.66-.32.92-.67,1.83-.92,2.78-.22.83-.35,1.7-.51,2.57-.14.73-.33,1.43-.42,2.18-.21,1.64-.33,3.32-.33,5.05,0,23.4,21.86,32.45,84.55,32.45Z"/>
  <path class="st0" d="M98.62,204.01c-3.59,0-4.61.34-.86,5.29s16.06,18.96,16.06,18.96h43.41c-2.17-8.45-3.77-16.74-4.97-24.25h-53.64Z"/>
  <path class="st0" d="M246.2,207.26c0-1.71-.51-3.24-2.22-3.24h-82.78c2.29,9.33,5.13,17.38,8.34,24.25h64.7s4.44-.68,2.73,6.67c-1.71,7.35-11.27,30.07-29.04,30.07-.86,0-1.75-.07-2.67-.17-.14-.02-.27-.03-.41-.05-.91-.12-1.85-.29-2.81-.53-.11-.03-.22-.06-.33-.08-6.35-1.62-13.59-5.69-20.53-13.01v.03c-12.75-13.45-24.48-37.91-27.74-78.43-.17-1.03-1.71-2.22-1.71,0,0,1.82,3.58,80.6,36.09,108.97.07.07.16.13.23.19,1.1.95,2.24,1.86,3.41,2.69.19.13.39.25.58.38,1.08.74,2.18,1.45,3.31,2.08.34.18.7.34,1.05.52,1.02.53,2.04,1.05,3.11,1.48.54.22,1.11.38,1.66.57.92.32,1.83.67,2.78.92.83.22,1.7.35,2.56.52.73.14,1.43.32,2.18.42,1.64.22,3.32.33,5.05.33,23.4,0,32.45-21.87,32.45-84.56Z"/>
  <path class="st0" d="M405.38,192.05c-3.76-4.95-16.05-18.96-16.05-18.96h-43.41c2.17,8.46,3.77,16.74,4.97,24.25h53.63c3.59,0,4.62-.34.86-5.29Z"/>
  <path class="st0" d="M315.32,119.63c-.07-.06-.16-.13-.23-.19-1.1-.95-2.24-1.86-3.41-2.69-.19-.13-.39-.24-.58-.38-1.08-.74-2.17-1.45-3.32-2.08-.34-.18-.7-.34-1.05-.51-1.02-.53-2.04-1.05-3.11-1.48-.54-.22-1.11-.38-1.66-.57-.92-.32-1.83-.67-2.78-.92-.83-.22-1.71-.35-2.56-.51-.73-.14-1.43-.33-2.18-.42-1.64-.21-3.32-.33-5.05-.33-23.4,0-32.45,21.86-32.45,84.56,0,1.71.51,3.24,2.22,3.24h82.78c-2.29-9.33-5.13-17.37-8.35-24.25h-64.7s-4.44.68-2.73-6.66c1.71-7.34,11.27-30.07,29.04-30.07.86,0,1.75.07,2.67.17.14.02.27.03.41.05.91.13,1.85.29,2.81.53.11.02.22.05.33.08,6.35,1.61,13.59,5.68,20.53,13.01v-.02c12.75,13.45,24.48,37.9,27.74,78.42.17,1.02,1.71,2.21,1.71,0,0-1.82-3.58-80.59-36.09-108.97Z"/>
  <g>
    <g>
      <path class="st0" d="M548.02,145.82c0,26.49-19.17,42.51-50.88,42.51h-30.14v36.94h-17.42v-121.97h47.57c31.71,0,50.88,16.03,50.88,42.51ZM530.59,145.82c0-17.42-11.67-27.36-33.98-27.36h-29.62v54.71h29.62c22.3,0,33.98-9.93,33.98-27.36Z"/>
      <path class="st0" d="M679.56,210.12v15.16h-88.51v-121.97h86.07v15.16h-68.65v37.46h61.16v14.81h-61.16v39.38h71.09Z"/>
      <path class="st0" d="M764.94,171.08l-22.3,22.65v31.54h-17.42v-121.97h17.42v68.13l66.21-68.13h19.86l-52.1,54.89,55.41,67.08h-20.39l-46.7-54.19Z"/>
    </g>
    <g>
      <path class="st0" d="M479.68,285.88v19.14h-6.26v-19.14l-23.99-36.23h6.77l20.57,31.09,20.57-31.09h6.34l-23.99,36.23Z"/>
      <path class="st0" d="M554.05,290.23h-33.42l-7.2,14.79h-6.6l27.42-55.37h6.25l27.42,55.37h-6.68l-7.2-14.79ZM551.74,285.48l-14.4-29.74-14.4,29.74h28.79Z"/>
      <path class="st0" d="M592.96,254.71h-21.08v-5.06h48.5v5.06h-21.08v50.31h-6.34v-50.31Z"/>
      <path class="st0" d="M636.91,249.65h6.34v55.37h-6.34v-55.37Z"/>
      <path class="st0" d="M710.18,305.02l-13.71-17.8c-1.54.16-3.08.24-4.8.24h-16.11v17.56h-6.34v-55.37h22.45c15.25,0,24.51,7.12,24.51,18.98,0,8.7-4.97,14.79-13.71,17.4l14.65,18.98h-6.94ZM709.84,268.63c0-8.86-6.34-13.92-18.34-13.92h-15.94v27.76h15.94c12,0,18.34-5.14,18.34-13.84Z"/>
      <path class="st0" d="M737.6,249.65h6.34v55.37h-6.34v-55.37Z"/>
      <path class="st0" d="M832.2,249.65v55.37h-6.08v-44.3l-23.57,37.26h-3l-23.57-37.02v44.06h-6.08v-55.37h5.23l26.05,41.05,25.79-41.05h5.23Z"/>
    </g>
  </g>
</svg>
