<?xml version="1.0" encoding="UTF-8"?>
<svg id="katman_1" xmlns="http://www.w3.org/2000/svg" version="1.1" viewBox="0 0 802.74 353.72">
  <!-- Generator: Adobe Illustrator 29.5.1, SVG Export Plug-In . SVG Version: 2.1.0 Build 141)  -->
  <defs>
    <style>
      .st0 {
        fill: #d4af53;
      }
    </style>
  </defs>
  <path class="st0" d="M209.99,317.29c0,3.29.31,4.24,4.86.79,4.55-3.45,17.41-14.74,17.41-14.74v-39.85c-7.76,1.99-15.37,3.47-22.27,4.57v49.24Z"/>
  <path class="st0" d="M212.97,181.79c-1.57,0-2.98.47-2.98,2.04v76c8.57-2.1,15.95-4.71,22.27-7.66v-59.4s-.63-4.08,6.12-2.51c6.74,1.57,27.6,10.35,27.6,26.67,0,.79-.06,1.61-.16,2.45-.02.13-.03.25-.04.38-.12.84-.27,1.7-.49,2.58-.02.1-.05.2-.08.3-1.48,5.82-5.22,12.47-11.95,18.85h.02c-12.35,11.71-34.79,22.48-71.99,25.47-.94.16-2.04,1.57,0,1.57,1.67,0,73.99-3.29,100.04-33.13.06-.07.11-.14.18-.21.87-1.02,1.71-2.05,2.47-3.13.12-.17.23-.36.35-.53.68-.99,1.33-2,1.91-3.04.17-.31.31-.64.47-.96.48-.93.96-1.87,1.36-2.86.21-.49.35-1.02.53-1.53.3-.84.61-1.67.84-2.55.2-.77.32-1.57.47-2.36.13-.66.3-1.31.39-2,.2-1.5.3-3.05.3-4.64,0-21.49-20.07-29.8-77.63-29.8Z"/>
  <path class="st0" d="M203.86,36.43c0-3.29-.31-4.23-4.86-.78-4.55,3.45-17.41,14.74-17.41,14.74v39.85c7.76-2,15.37-3.47,22.27-4.57v-49.24Z"/>
  <path class="st0" d="M200.88,171.93c1.57,0,2.98-.47,2.98-2.04v-75.99c-8.57,2.1-15.95,4.71-22.27,7.66v59.4s.63,4.08-6.12,2.51c-6.74-1.57-27.6-10.35-27.6-26.66,0-.79.06-1.61.16-2.45.02-.13.03-.25.04-.38.12-.84.27-1.7.49-2.58.02-.1.05-.2.08-.3,1.48-5.83,5.22-12.47,11.95-18.85h-.02c12.35-11.71,34.79-22.48,71.99-25.47.94-.16,2.04-1.57,0-1.57-1.67,0-73.99,3.29-100.04,33.13-.06.07-.12.14-.18.21-.88,1.02-1.71,2.05-2.47,3.13-.12.17-.22.36-.35.53-.68.99-1.33,2-1.91,3.04-.17.32-.31.64-.47.96-.48.94-.96,1.87-1.36,2.86-.21.49-.35,1.02-.53,1.52-.3.85-.61,1.68-.84,2.55-.2.76-.32,1.56-.47,2.36-.13.67-.3,1.31-.39,2-.2,1.5-.3,3.05-.3,4.64,0,21.48,20.07,29.79,77.63,29.79Z"/>
  <path class="st0" d="M66.19,179.81c-3.29,0-4.24.31-.79,4.86,3.45,4.55,14.74,17.4,14.74,17.4h39.85c-1.99-7.76-3.47-15.36-4.57-22.26h-49.24Z"/>
  <path class="st0" d="M201.69,182.79c0-1.57-.47-2.98-2.04-2.98h-76c2.1,8.56,4.71,15.95,7.66,22.26h59.4s4.08-.62,2.51,6.13c-1.57,6.75-10.35,27.6-26.66,27.6-.79,0-1.61-.06-2.45-.16-.13-.02-.25-.03-.38-.04-.84-.11-1.7-.27-2.58-.49-.1-.02-.2-.05-.3-.07-5.83-1.48-12.47-5.22-18.85-11.95v.02c-11.71-12.35-22.48-34.8-25.47-72-.16-.94-1.57-2.04-1.57,0,0,1.67,3.29,73.99,33.13,100.05.07.06.14.12.21.18,1.01.87,2.05,1.71,3.13,2.47.17.12.36.23.53.35.99.68,2,1.33,3.04,1.91.31.17.64.31.96.47.94.48,1.87.96,2.86,1.36.49.2,1.02.35,1.53.53.84.3,1.68.61,2.55.84.76.2,1.56.32,2.35.47.67.13,1.31.3,2,.39,1.5.2,3.05.3,4.64.3,21.48,0,29.8-20.07,29.8-77.63Z"/>
  <path class="st0" d="M347.82,168.82c-3.45-4.55-14.74-17.41-14.74-17.41h-39.85c1.99,7.76,3.47,15.37,4.57,22.27h49.24c3.29,0,4.24-.31.79-4.86Z"/>
  <path class="st0" d="M265.14,102.34c-.07-.06-.14-.11-.21-.18-1.01-.87-2.05-1.71-3.13-2.47-.17-.12-.36-.22-.53-.35-.99-.68-2-1.33-3.04-1.91-.31-.17-.64-.31-.96-.47-.93-.49-1.87-.96-2.86-1.36-.49-.2-1.02-.35-1.53-.53-.84-.3-1.68-.61-2.55-.84-.76-.2-1.57-.32-2.35-.47-.67-.13-1.32-.3-2-.39-1.5-.2-3.05-.3-4.64-.3-21.48,0-29.79,20.07-29.79,77.63,0,1.57.47,2.98,2.04,2.98h76c-2.1-8.57-4.71-15.95-7.66-22.27h-59.4s-4.08.63-2.51-6.12c1.57-6.74,10.35-27.6,26.66-27.6.79,0,1.61.06,2.45.16.13.02.25.03.38.04.84.12,1.7.27,2.58.49.1.02.2.05.3.07,5.83,1.48,12.48,5.22,18.85,11.95v-.02c11.71,12.35,22.48,34.79,25.47,71.99.16.94,1.57,2.03,1.57,0,0-1.67-3.29-73.99-33.13-100.04Z"/>
  <g>
    <g>
      <path class="st0" d="M478.77,126.38c0,24.32-17.6,39.03-46.71,39.03h-27.67v33.91h-16v-111.98h43.67c29.11,0,46.71,14.72,46.71,39.03ZM462.78,126.38c0-16-10.72-25.11-31.19-25.11h-27.19v50.23h27.19c20.48,0,31.19-9.12,31.19-25.12Z"/>
      <path class="st0" d="M599.54,185.41v13.92h-81.26v-111.98h79.03v13.92h-63.03v34.39h56.15v13.6h-56.15v36.15h65.27Z"/>
      <path class="st0" d="M677.92,149.58l-20.48,20.8v28.95h-16v-111.98h16v62.55l60.79-62.55h18.24l-47.83,50.39,50.87,61.59h-18.72l-42.87-49.75Z"/>
    </g>
    <g>
      <path class="st0" d="M424.85,240.84c0,9.21-7.23,14.77-19.14,14.77h-12.58v13.66h-4.95v-43.26h17.54c11.91,0,19.14,5.56,19.14,14.83ZM419.89,240.84c0-6.92-4.95-10.88-14.32-10.88h-12.45v21.63h12.45c9.37,0,14.32-3.95,14.32-10.75Z"/>
      <path class="st0" d="M437.1,247.64c0-12.61,10.44-22,24.63-22s24.57,9.33,24.57,22-10.51,22-24.57,22-24.63-9.39-24.63-22ZM481.35,247.64c0-10.32-8.37-17.92-19.61-17.92s-19.75,7.6-19.75,17.92,8.43,17.92,19.75,17.92,19.61-7.6,19.61-17.92Z"/>
      <path class="st0" d="M534.44,269.27l-10.71-13.9c-1.21.12-2.41.19-3.75.19h-12.58v13.72h-4.95v-43.26h17.54c11.91,0,19.14,5.56,19.14,14.83,0,6.8-3.88,11.56-10.71,13.59l11.45,14.83h-5.42ZM534.17,240.84c0-6.92-4.95-10.88-14.32-10.88h-12.45v21.69h12.45c9.37,0,14.32-4.02,14.32-10.81Z"/>
      <path class="st0" d="M564.3,229.97h-16.47v-3.95h37.89v3.95h-16.47v39.3h-4.95v-39.3Z"/>
      <path class="st0" d="M603.6,229.97v17h24.23v3.95h-24.23v18.35h-4.95v-43.26h32.13v3.95h-27.18Z"/>
      <path class="st0" d="M641.29,247.64c0-12.61,10.44-22,24.63-22s24.57,9.33,24.57,22-10.51,22-24.57,22-24.63-9.39-24.63-22ZM685.53,247.64c0-10.32-8.37-17.92-19.61-17.92s-19.75,7.6-19.75,17.92,8.43,17.92,19.75,17.92,19.61-7.6,19.61-17.92ZM657.09,218.41c0-1.48,1.27-2.66,2.88-2.66s2.88,1.17,2.88,2.66-1.34,2.66-2.88,2.66-2.88-1.11-2.88-2.66ZM669,218.41c0-1.48,1.34-2.66,2.88-2.66s2.88,1.17,2.88,2.66-1.27,2.66-2.88,2.66-2.88-1.11-2.88-2.66Z"/>
      <path class="st0" d="M720.69,254.31v14.95h-4.89v-14.95l-18.74-28.3h5.29l16.06,24.29,16.06-24.29h4.95l-18.74,28.3Z"/>
    </g>
  </g>
</svg>